<svg xmlns="http://www.w3.org/2000/svg" version="1.1" xmlns:xlink="http://www.w3.org/1999/xlink" xmlns:svgjs="http://svgjs.dev/svgjs" width="100%" height="100%" viewBox="0 0 1000 600"><rect width="1000" height="600" x="0" y="0" fill="#141a46"/><g><circle r="166.66666666666666" cx="467.14152018229163" cy="489.36378128389515" fill="#ec8b5e" transform="matrix(0.4160081619934699,0,0,0.41600816199347,0,96.42067873253652)"/><path d="M377.35907168729375 533.4814430868921L377.35907168729375 533.4814430868921L377.35907168729375 521.3490908641338L392.8002472435317 521.3490908641338L392.8002472435317 533.4814430868921Q392.8002472435317 548.248599075199 383.7622575826385 556.3061966372834Q374.72426792174525 564.3637941993679 356.617651346871 564.3637941993679Q338.5416720250846 564.3637941993679 329.2585843394892 556.3061966372834Q320.0061339069815 548.248599075199 320.0061339069815 533.4814430868921L320.0061339069815 533.4814430868921L320.0061339069815 445.24615419410407Q320.0061339069815 430.4789982057971 329.04412356787475 422.4214006437127Q338.082113228768 414.3638030816282 356.1887298036422 414.3638030816282Q374.2647091254287 414.3638030816282 383.54779681102406 422.4214006437127Q392.8002472435317 430.4789982057971 392.8002472435317 445.24615419410407L392.8002472435317 445.24615419410407L392.8002472435317 466.20203530614117L377.35907168729375 466.20203530614117L377.35907168729375 445.24615419410407Q377.35907168729375 427.5990964155464 356.40319057525664 427.5990964155464Q335.4473094632194 427.5990964155464 335.4473094632194 445.24615419410407L335.4473094632194 445.24615419410407L335.4473094632194 533.4814430868921Q335.4473094632194 551.1285008654497 356.40319057525664 551.1285008654497Q377.35907168729375 551.1285008654497 377.35907168729375 533.4814430868921ZM485.44730058095917 533.4814430868921L485.44730058095917 533.4814430868921L485.44730058095917 521.3490908641338L500.88847613719713 521.3490908641338L500.88847613719713 533.4814430868921Q500.88847613719713 548.248599075199 491.8504864763039 556.3061966372834Q482.81249681541067 564.3637941993679 464.70588024053643 564.3637941993679Q446.62990091874997 564.3637941993679 437.3468132331546 556.3061966372834Q428.09436280064693 548.248599075199 428.09436280064693 533.4814430868921L428.09436280064693 533.4814430868921L428.09436280064693 445.24615419410407Q428.09436280064693 430.4789982057971 437.13235246154017 422.4214006437127Q446.17034212243334 414.3638030816282 464.2769586973076 414.3638030816282Q482.35293801909404 414.3638030816282 491.6360257046895 422.4214006437127Q500.88847613719713 430.4789982057971 500.88847613719713 445.24615419410407L500.88847613719713 445.24615419410407L500.88847613719713 466.20203530614117L485.44730058095917 466.20203530614117L485.44730058095917 445.24615419410407Q485.44730058095917 427.5990964155464 464.491419468922 427.5990964155464Q443.53553835688484 427.5990964155464 443.53553835688484 445.24615419410407L443.53553835688484 445.24615419410407L443.53553835688484 533.4814430868921Q443.53553835688484 551.1285008654497 464.491419468922 551.1285008654497Q485.44730058095917 551.1285008654497 485.44730058095917 533.4814430868921ZM614.2769498150474 417.67262641510774L581.832098795095 561.0549708658884L558.6703354607382 561.0549708658884L526.2561216938736 417.67262641510774L541.6972972501117 417.67262641510774L570.1593053686532 544.0819326552618L598.8357742588094 417.67262641510774L614.2769498150474 417.67262641510774Z " fill="#141a46" transform="matrix(0.4160081619934699,0,0,0.41600816199347,0,96.42067873253652)"/><path d="M774.4944781814344 533.4814430868921L774.4944781814344 533.4814430868921L774.4944781814344 521.3490908641338L789.9356537376723 521.3490908641338L789.9356537376723 533.4814430868921Q789.9356537376723 548.248599075199 780.897664076779 556.3061966372834Q771.8596744158858 564.3637941993679 753.7530578410117 564.3637941993679Q735.6770785192252 564.3637941993679 726.3939908336297 556.3061966372834Q717.1415404011221 548.248599075199 717.1415404011221 533.4814430868921L717.1415404011221 533.4814430868921L717.1415404011221 445.24615419410407Q717.1415404011221 430.4789982057971 726.1795300620154 422.4214006437127Q735.2175197229086 414.3638030816282 753.3241362977828 414.3638030816282Q771.4001156195693 414.3638030816282 780.6832033051646 422.4214006437127Q789.9356537376723 430.4789982057971 789.9356537376723 445.24615419410407L789.9356537376723 445.24615419410407L789.9356537376723 466.20203530614117L774.4944781814344 466.20203530614117L774.4944781814344 445.24615419410407Q774.4944781814344 427.5990964155464 753.5385970693972 427.5990964155464Q732.58271595736 427.5990964155464 732.58271595736 445.24615419410407L732.58271595736 445.24615419410407L732.58271595736 533.4814430868921Q732.58271595736 551.1285008654497 753.5385970693972 551.1285008654497Q774.4944781814344 551.1285008654497 774.4944781814344 533.4814430868921ZM843.979768184505 460.2584082071131L843.979768184505 561.0549708658884L828.5385926282671 561.0549708658884L828.5385926282671 417.67262641510774L835.1562392952262 417.67262641510774L841.5594251905709 434.00228231089113Q848.6059934007588 414.3638030816282 864.0471689569968 414.3638030816282L864.0471689569968 414.3638030816282Q890.3032948532187 414.3638030816282 890.3032948532187 443.0402719717843L890.3032948532187 443.0402719717843L890.3032948532187 457.37850641686236L875.5361388649119 457.37850641686236L875.5361388649119 442.1517916322389Q875.5361388649119 427.5990964155464 863.4037866421535 427.5990964155464L863.4037866421535 427.5990964155464Q856.1121204072633 427.5990964155464 850.0459442958842 435.9937037615964Q843.979768184505 444.3576738545586 843.979768184505 460.2584082071131L843.979768184505 460.2584082071131ZM970.8179959678879 533.4814430868921L970.8179959678879 533.4814430868921L970.8179959678879 521.3490908641338L986.2591715241257 521.3490908641338L986.2591715241257 533.4814430868921Q986.2591715241257 548.248599075199 977.2211818632326 556.3061966372834Q968.1831922023393 564.3637941993679 950.0765756274651 564.3637941993679Q932.0005963056786 564.3637941993679 922.7175086200833 556.3061966372834Q913.4650581875757 548.248599075199 913.4650581875757 533.4814430868921L913.4650581875757 533.4814430868921L913.4650581875757 445.24615419410407Q913.4650581875757 430.4789982057971 922.5030478484689 422.4214006437127Q931.541037509362 414.3638030816282 949.6476540842363 414.3638030816282Q967.7236334060227 414.3638030816282 977.0067210916181 422.4214006437127Q986.2591715241257 430.4789982057971 986.2591715241257 445.24615419410407L986.2591715241257 445.24615419410407L986.2591715241257 493.7755630851375L928.9062337438135 493.7755630851375L928.9062337438135 533.4814430868921Q928.9062337438135 551.1285008654497 949.8621148558507 551.1285008654497Q970.8179959678879 551.1285008654497 970.8179959678879 533.4814430868921ZM928.9062337438135 445.24615419410407L928.9062337438135 445.24615419410407L928.9062337438135 480.5402697512193L970.8179959678879 480.5402697512193L970.8179959678879 445.24615419410407Q970.8179959678879 427.5990964155464 949.8621148558507 427.5990964155464Q928.9062337438135 427.5990964155464 928.9062337438135 445.24615419410407ZM1095.450341528951 445.24615419410407L1095.450341528951 561.0549708658884L1088.832694861992 561.0549708658884L1083.1035285345783 546.9311971924247Q1078.4773033183246 554.8662457421581 1070.9711763118198 559.615019970763Q1063.4650493053155 564.3637941993679 1054.4270596444221 564.3637941993679L1054.4270596444221 564.3637941993679Q1022.6562281924009 564.3637941993679 1022.6562281924009 533.4814430868921L1022.6562281924009 533.4814430868921L1022.6562281924009 511.4226208636951Q1022.6562281924009 480.5402697512193 1054.4270596444221 480.5402697512193L1054.4270596444221 480.5402697512193L1080.0091659727132 480.5402697512193L1080.0091659727132 444.3576738545586Q1080.0091659727132 436.4226253048252 1074.9233819601427 432.0108608601858Q1069.86823520066 427.5990964155464 1059.9417652002214 427.5990964155464L1059.9417652002214 427.5990964155464Q1040.3032859709583 427.5990964155464 1040.3032859709583 444.3576738545586L1040.3032859709583 444.3576738545586L1040.3032859709583 457.37850641686236L1024.8621104147205 457.37850641686236L1024.8621104147205 445.24615419410407Q1024.8621104147205 430.4789982057971 1033.5630902916482 422.4214006437127Q1042.2947074216638 414.3638030816282 1059.9417652002214 414.3638030816282Q1077.5888229787788 414.3638030816282 1086.504263627321 422.4214006437127Q1095.450341528951 430.4789982057971 1095.450341528951 445.24615419410407L1095.450341528951 445.24615419410407ZM1080.0091659727132 529.7436982101838L1080.0091659727132 493.7755630851375L1054.4270596444221 493.7755630851375Q1045.1439719588266 493.7755630851375 1041.6206878537328 498.40178830139126Q1038.097403748639 503.0280135176451 1038.097403748639 511.4226208636951L1038.097403748639 511.4226208636951L1038.097403748639 533.4814430868921Q1038.097403748639 541.8760504329421 1041.6206878537328 546.5022756491959Q1045.1439719588266 551.1285008654497 1054.4270596444221 551.1285008654497Q1063.67951007693 551.1285008654497 1071.614558626663 543.9593836429107Q1079.5802444294843 536.7902664203716 1080.0091659727132 529.7436982101838L1080.0091659727132 529.7436982101838ZM1152.8032793092634 460.2584082071131L1152.8032793092634 561.0549708658884L1137.3621037530254 561.0549708658884L1137.3621037530254 417.67262641510774L1143.9797504199846 417.67262641510774L1150.382936315329 434.00228231089113Q1157.4295045255171 414.3638030816282 1172.870680081755 414.3638030816282L1172.870680081755 414.3638030816282Q1199.126805977977 414.3638030816282 1199.126805977977 443.0402719717843L1199.126805977977 443.0402719717843L1199.126805977977 457.37850641686236L1184.3596499896703 457.37850641686236L1184.3596499896703 442.1517916322389Q1184.3596499896703 427.5990964155464 1172.2272977669118 427.5990964155464L1172.2272977669118 427.5990964155464Q1164.9356315320217 427.5990964155464 1158.8694554206427 435.9937037615964Q1152.8032793092634 444.3576738545586 1152.8032793092634 460.2584082071131L1152.8032793092634 460.2584082071131ZM1279.6415070926462 533.4814430868921L1279.6415070926462 533.4814430868921L1279.6415070926462 521.3490908641338L1295.0826826488842 521.3490908641338L1295.0826826488842 533.4814430868921Q1295.0826826488842 548.248599075199 1286.0446929879909 556.3061966372834Q1277.0067033270977 564.3637941993679 1258.9000867522234 564.3637941993679Q1240.824107430437 564.3637941993679 1231.5410197448416 556.3061966372834Q1222.288569312334 548.248599075199 1222.288569312334 533.4814430868921L1222.288569312334 533.4814430868921L1222.288569312334 445.24615419410407Q1222.288569312334 430.4789982057971 1231.326558973227 422.4214006437127Q1240.3645486341204 414.3638030816282 1258.4711652089945 414.3638030816282Q1276.547144530781 414.3638030816282 1285.8302322163763 422.4214006437127Q1295.0826826488842 430.4789982057971 1295.0826826488842 445.24615419410407L1295.0826826488842 445.24615419410407L1295.0826826488842 466.20203530614117L1279.6415070926462 466.20203530614117L1279.6415070926462 445.24615419410407Q1279.6415070926462 427.5990964155464 1258.685625980609 427.5990964155464Q1237.7297448685717 427.5990964155464 1237.7297448685717 445.24615419410407L1237.7297448685717 445.24615419410407L1237.7297448685717 533.4814430868921Q1237.7297448685717 551.1285008654497 1258.685625980609 551.1285008654497Q1279.6415070926462 551.1285008654497 1279.6415070926462 533.4814430868921ZM1408.4711563267342 417.67262641510774L1376.026305306782 561.0549708658884L1352.8645419724253 561.0549708658884L1320.4503282055607 417.67262641510774L1335.8915037617985 417.67262641510774L1364.3535118803402 544.0819326552618L1393.0299807704964 417.67262641510774L1408.4711563267342 417.67262641510774ZM1544.132912999396 533.4814430868921L1544.132912999396 533.4814430868921L1544.132912999396 521.3490908641338L1559.5740885556338 521.3490908641338L1559.5740885556338 533.4814430868921Q1559.5740885556338 548.248599075199 1550.536098894741 556.3061966372834Q1541.46747198076 564.3637941993679 1523.3914926589732 564.3637941993679Q1505.315513337187 564.3637941993679 1496.0324256515914 556.3061966372834Q1486.7799752190836 548.248599075199 1486.7799752190836 533.4814430868921L1486.7799752190836 533.4814430868921L1486.7799752190836 445.24615419410407Q1486.7799752190836 430.4789982057971 1495.817964879977 422.4214006437127Q1504.8559545408702 414.3638030816282 1522.9625711157446 414.3638030816282Q1541.0385504375308 414.3638030816282 1550.2910008700387 422.4214006437127Q1559.5740885556338 430.4789982057971 1559.5740885556338 445.24615419410407L1559.5740885556338 445.24615419410407L1559.5740885556338 466.20203530614117L1544.132912999396 466.20203530614117L1544.132912999396 445.24615419410407Q1544.132912999396 427.5990964155464 1523.1770318873587 427.5990964155464Q1502.2211507753218 427.5990964155464 1502.2211507753218 445.24615419410407L1502.2211507753218 445.24615419410407L1502.2211507753218 533.4814430868921Q1502.2211507753218 551.1285008654497 1523.1770318873587 551.1285008654497Q1544.132912999396 551.1285008654497 1544.132912999396 533.4814430868921ZM1669.868199671619 445.24615419410407L1669.868199671619 445.24615419410407L1669.868199671619 533.4814430868921Q1669.868199671619 548.248599075199 1660.49320022676 556.3061966372834Q1651.1182007819016 564.3637941993679 1632.4601136514475 564.3637941993679Q1613.832663774081 564.3637941993679 1604.335115316871 556.3061966372834Q1594.8682041127495 548.248599075199 1594.8682041127495 533.4814430868921L1594.8682041127495 533.4814430868921L1594.8682041127495 445.24615419410407Q1594.8682041127495 430.4789982057971 1604.243203557608 422.4214006437127Q1613.618203002467 414.3638030816282 1632.245652879833 414.3638030816282Q1650.903740010287 414.3638030816282 1660.3706512144095 422.4214006437127Q1669.868199671619 430.4789982057971 1669.868199671619 445.24615419410407ZM1654.4270241153813 533.4814430868921L1654.4270241153813 533.4814430868921L1654.4270241153813 445.24615419410407Q1654.4270241153813 427.5990964155464 1632.368201892184 427.5990964155464Q1610.3093796689868 427.5990964155464 1610.3093796689868 445.24615419410407L1610.3093796689868 445.24615419410407L1610.3093796689868 533.4814430868921Q1610.3093796689868 551.1285008654497 1632.368201892184 551.1285008654497Q1654.4270241153813 551.1285008654497 1654.4270241153813 533.4814430868921ZM1726.1181963407716 448.9838990708124L1726.1181963407716 561.0549708658884L1710.6770207845339 561.0549708658884L1710.6770207845339 417.67262641510774L1717.2946674514928 417.67262641510774L1722.809373007292 431.79640008857143Q1727.4355982235456 423.861351538838 1734.9417252300505 419.1125773102331Q1742.4478522365548 414.3638030816282 1751.271381125834 414.3638030816282L1751.271381125834 414.3638030816282Q1773.5446641206454 414.3638030816282 1779.7027519912876 430.4789982057971L1779.7027519912876 430.4789982057971Q1790.3032415596572 414.3638030816282 1807.5213777949862 414.3638030816282L1807.5213777949862 414.3638030816282Q1838.6181896790763 414.3638030816282 1838.6181896790763 445.24615419410407L1838.6181896790763 445.24615419410407L1838.6181896790763 561.0549708658884L1823.1770141228385 561.0549708658884L1823.1770141228385 445.24615419410407Q1823.1770141228385 427.5990964155464 1807.276279770284 427.5990964155464L1807.276279770284 427.5990964155464Q1798.0238293377765 427.5990964155464 1790.180692547306 435.1052234220509Q1782.3681930099237 442.6113504285555 1782.3681930099237 449.6579186387434L1782.3681930099237 449.6579186387434L1782.3681930099237 561.0549708658884L1766.927017453686 561.0549708658884L1766.927017453686 445.24615419410407Q1766.927017453686 427.5990964155464 1751.0262831011314 427.5990964155464L1751.0262831011314 427.5990964155464Q1741.773832668624 427.5990964155464 1733.930695878154 434.76821363808546Q1726.1181963407716 441.93733086062446 1726.1181963407716 448.9838990708124L1726.1181963407716 448.9838990708124ZM1999.6475919084146 445.24615419410407L1999.6475919084146 561.0549708658884L1993.0299452414556 561.0549708658884L1987.300778914042 546.9311971924247Q1982.6439164447002 554.8662457421581 1975.1684266912835 559.615019970763Q1967.662299684779 564.3637941993679 1958.6243100238858 564.3637941993679L1958.6243100238858 564.3637941993679Q1926.8534785718648 564.3637941993679 1926.8534785718648 533.4814430868921L1926.8534785718648 533.4814430868921L1926.8534785718648 511.4226208636951Q1926.8534785718648 480.5402697512193 1958.6243100238858 480.5402697512193L1958.6243100238858 480.5402697512193L1984.2064163521768 480.5402697512193L1984.2064163521768 444.3576738545586Q1984.2064163521768 436.4226253048252 1979.1206323396063 432.0108608601858Q1974.0654855801235 427.5990964155464 1964.1390155796848 427.5990964155464L1964.1390155796848 427.5990964155464Q1944.500536350422 427.5990964155464 1944.500536350422 444.3576738545586L1944.500536350422 444.3576738545586L1944.500536350422 457.37850641686236L1929.0593607941842 457.37850641686236L1929.0593607941842 445.24615419410407Q1929.0593607941842 430.4789982057971 1937.7603406711119 422.4214006437127Q1946.4919578011277 414.3638030816282 1964.1390155796848 414.3638030816282Q1981.7860733582424 414.3638030816282 1990.7015140067847 422.4214006437127Q1999.6475919084146 430.4789982057971 1999.6475919084146 445.24615419410407L1999.6475919084146 445.24615419410407ZM1984.2064163521768 529.7436982101838L1984.2064163521768 493.7755630851375L1958.6243100238858 493.7755630851375Q1949.3412223382902 493.7755630851375 1945.8179382331964 498.40178830139126Q1942.2946541281021 503.0280135176451 1942.2946541281021 511.4226208636951L1942.2946541281021 511.4226208636951L1942.2946541281021 533.4814430868921Q1942.2946541281021 541.8760504329421 1945.8179382331964 546.5022756491959Q1949.3412223382902 551.1285008654497 1958.6243100238858 551.1285008654497Q1967.8767604563932 551.1285008654497 1975.8118090061266 543.9593836429107Q1983.74685755586 536.7902664203716 1984.2064163521768 529.7436982101838L1984.2064163521768 529.7436982101838ZM2057.000529688727 460.2584082071131L2057.000529688727 561.0549708658884L2041.5593541324893 561.0549708658884L2041.5593541324893 417.67262641510774L2048.1770007994483 417.67262641510774L2054.5801866947927 434.00228231089113Q2061.6267549049808 414.3638030816282 2077.0679304612186 414.3638030816282L2077.0679304612186 414.3638030816282Q2103.324056357441 414.3638030816282 2103.324056357441 443.0402719717843L2103.324056357441 443.0402719717843L2103.324056357441 457.37850641686236L2088.5262631160463 457.37850641686236L2088.5262631160463 442.1517916322389Q2088.5262631160463 427.5990964155464 2076.3939108932873 427.5990964155464L2076.3939108932873 427.5990964155464Q2069.1328819114856 427.5990964155464 2063.066705800106 435.9937037615964Q2057.000529688727 444.3576738545586 2057.000529688727 460.2584082071131L2057.000529688727 460.2584082071131Z " fill="#ec8b5e" transform="matrix(0.4160081619934699,0,0,0.41600816199347,0,96.42067873253652)"/></g></svg>